<svg xmlns="http://www.w3.org/2000/svg" viewBox="0 0 200 157.5"><defs><style>.cls-1{fill:#f7da7f;}.cls-2{fill:none;}.cls-3{fill:#6abcc6;}.cls-4{opacity:0.4;}.cls-5{fill:#80c1c4;}</style></defs><g id="レイヤー_2" data-name="レイヤー 2"><g id="レイヤー_1-2" data-name="レイヤー 1"><rect class="cls-1" x="82.61" y="-9.8" width="89.84" height="177.09" rx="44.92" transform="matrix(-0.78, -0.63, 0.63, -0.78, 176.69, 220.34)"/><path class="cls-1" d="M83.51,154.35c-.71-.28-1.4-.6-2.1-.92a44.71,44.71,0,0,0,21.93,3.9A45.25,45.25,0,0,1,83.51,154.35Z"/><path class="cls-1" d="M121.83,151.79c-.57.33-1.15.63-1.74.92C120.68,152.42,121.26,152.11,121.83,151.79Z"/><path class="cls-1" d="M77.27,151.28A46.2,46.2,0,0,1,73,148.42,46.88,46.88,0,0,0,77.27,151.28Z"/><path class="cls-1" d="M67.35,143.39c.72.76,1.48,1.5,2.26,2.21C68.84,144.89,68.08,144.17,67.35,143.39Z"/><path class="cls-1" d="M114.8,154.93c-.69.24-1.37.51-2.07.71C113.43,155.44,114.11,155.17,114.8,154.93Z"/><path class="cls-1" d="M80.35,152.94c-.74-.36-1.47-.74-2.2-1.15C78.88,152.2,79.61,152.58,80.35,152.94Z"/><path class="cls-1" d="M117.85,153.76c-.35.15-.69.32-1,.46C117.16,154.08,117.5,153.91,117.85,153.76Z"/><path class="cls-1" d="M71.61,147.41h0c.32.25.65.46,1,.7-.6-.46-1.19-.94-1.77-1.43C71.08,146.91,71.33,147.18,71.61,147.41Z"/><path class="cls-1" d="M128.35,147.41c-.34.27-.7.5-1,.76a45.19,45.19,0,0,1-4.6,3.1A44,44,0,0,0,130,146c-.53.48-1,1-1.61,1.45Z"/><path class="cls-1" d="M133.25,142.67c-.56.63-1.11,1.26-1.71,1.86C132.13,143.94,132.68,143.3,133.25,142.67Z"/><path class="cls-2" d="M78.15,151.79l-.88-.51Z"/><path class="cls-2" d="M81.41,153.43l-1.06-.49Z"/><path class="cls-2" d="M122.71,151.27c-.29.17-.58.36-.88.52C122.13,151.63,122.42,151.45,122.71,151.27Z"/><path class="cls-2" d="M116.52,154.35l.29-.13-.35.13Z"/><path class="cls-2" d="M120.09,152.71c-.74.37-1.48.72-2.24,1C118.61,153.43,119.35,153.09,120.09,152.71Z"/><path class="cls-2" d="M72.65,148.17l.34.25-.33-.25Z"/><path class="cls-3" d="M67.35,143.39,67,143Z"/><path class="cls-3" d="M70.8,146.68c-.41-.35-.79-.72-1.19-1.08C70,146,70.4,146.33,70.8,146.68Z"/><path class="cls-3" d="M131.54,144.53c-.51.5-1,1-1.58,1.43C130.49,145.48,131,145,131.54,144.53Z"/><path class="cls-3" d="M72.57,148.11l.08.06h0Z"/><path class="cls-3" d="M114.8,154.93c.57-.2,1.16-.36,1.72-.58h-.06C115.91,154.56,115.35,154.74,114.8,154.93Z"/><path class="cls-3" d="M75.78,71.16l5.43-6.67H4.5a44.28,44.28,0,0,0,4,6.67Z"/><path class="cls-3" d="M96.69,45.49,100,41.44l-2.13-2.62H.43A46.5,46.5,0,0,0,0,45.49Z"/><path class="cls-3" d="M82.37,19.82s-4.66-5.6-5.72-6.67H13.13a44.93,44.93,0,0,0-5.49,6.67Z"/><path class="cls-3" d="M86.24,58.32l5.42-6.66H.52A44.21,44.21,0,0,0,2,58.32Z"/><path class="cls-3" d="M92.83,32.65,87.4,26H4.2a45.68,45.68,0,0,0-2.5,6.66Z"/><path class="cls-3" d="M68.89,7A44.94,44.94,0,0,0,50,.31H39.87A44.66,44.66,0,0,0,20.89,7Z"/><path class="cls-3" d="M56.21,122.5a45.34,45.34,0,0,1-1-6.66H44.71l5.43,6.66Z"/><path class="cls-3" d="M57.94,96.83a44.52,44.52,0,0,1,3.17-6.66H23.81l5.42,6.66Z"/><path class="cls-3" d="M58.08,128.67H55.17l5.42,6.67h.71A45,45,0,0,1,58.08,128.67Z"/><path class="cls-3" d="M55.19,109.67a45.76,45.76,0,0,1,.94-6.67H34.26l5.43,6.67Z"/><polygon class="cls-3" points="65.33 84 70.76 77.33 13.35 77.33 18.78 84 65.33 84"/><g class="cls-4"><polygon class="cls-5" points="75.78 71.16 124.19 71.16 118.76 64.49 81.21 64.49 75.78 71.16"/><polygon class="cls-5" points="103.28 45.49 99.98 41.44 96.69 45.49 103.28 45.49"/><polygon class="cls-5" points="86.24 58.32 113.73 58.32 108.3 51.66 91.67 51.66 86.24 58.32"/><path class="cls-5" d="M65.67,141.51c.44.52.89,1,1.35,1.51l.33.37c.73.78,1.49,1.5,2.26,2.21.4.36.78.73,1.19,1.08.58.49,1.17,1,1.77,1.43l.09.06h54.65c.34-.26.7-.49,1-.76h0c.57-.46,1.08-1,1.61-1.45s1.07-.93,1.58-1.43,1.15-1.23,1.71-1.86c.35-.38.71-.76,1.05-1.16Z"/><path class="cls-5" d="M56.21,122.5h87.55a45.32,45.32,0,0,0,1-6.66H55.22A45.34,45.34,0,0,0,56.21,122.5Z"/><path class="cls-5" d="M57.94,96.83H142a44.52,44.52,0,0,0-3.17-6.66H61.11A44.52,44.52,0,0,0,57.94,96.83Z"/><path class="cls-5" d="M83.51,154.35a45.25,45.25,0,0,0,19.83,3c.3,0,.61,0,.91-.05.85-.08,1.69-.22,2.53-.35.59-.09,1.18-.16,1.76-.27s1.4-.33,2.1-.5,1.4-.32,2.09-.52,1.38-.47,2.07-.71,1.11-.37,1.66-.58Z"/><path class="cls-5" d="M61.3,135.34h77.37a45,45,0,0,0,3.22-6.67H58.08A45,45,0,0,0,61.3,135.34Z"/><path class="cls-5" d="M55.19,109.67h89.58a44.41,44.41,0,0,0-.93-6.67H56.13A45.76,45.76,0,0,0,55.19,109.67Z"/><polygon class="cls-5" points="65.33 84 134.64 84 129.21 77.33 70.76 77.33 65.33 84"/></g></g></g></svg>