<svg xmlns="http://www.w3.org/2000/svg" xmlns:xlink="http://www.w3.org/1999/xlink" width="138" height="125" viewBox="0 0 138 125">
    <defs>
        <path id="f09vusehfa" d="M0 -0.004L82.245 -0.004 82.245 22.558 0 22.558z"/>
        <path id="hwwylxvmdc" d="M0 0.855L82.245 0.855 82.245 31.606 0 31.606z"/>
        <path id="fvlo96gmfe" d="M0.393 0.109L20 0.109 20 36.143 0.393 36.143z"/>
        <path id="2xtdyc1ukg" d="M0.301 0.699L19.908 0.699 19.908 47.143 0.301 47.143z"/>
    </defs>
    <g fill="none" fill-rule="evenodd">
        <path fill="#FFF" d="M10 96.542c0 3.156 9.081 8.498 26.586 10.495V89.114c0-1.659.504-3.202 1.363-4.487-11.48-1.125-21.843-3.745-27.949-7.785v19.7zM68.022 84.437v-.234l-.16.02c.054.071.108.141.16.214"/>
        <g transform="translate(10 .433)">
            <mask id="ie4gj42w9b" fill="#fff">
                <use xlink:href="#f09vusehfa"/>
            </mask>
            <path fill="#FFF" d="M1.895 14.134c4.67 3.862 17.945 8.424 39.228 8.424s34.557-4.562 39.227-8.424c1.255-1.037 1.895-2.024 1.895-2.857 0-.833-.64-1.82-1.895-2.857C75.68 4.558 62.406-.004 41.123-.004 19.84-.004 6.565 4.558 1.895 8.42.64 9.457 0 10.444 0 11.277c0 .833.64 1.82 1.895 2.857" mask="url(#ie4gj42w9b)"/>
        </g>
        <g transform="translate(10 19.433)">
            <mask id="o8tj38qy2d" fill="#fff">
                <use xlink:href="#hwwylxvmdc"/>
            </mask>
            <path fill="#FFF" d="M33.122 31.606l14.349-11.051 10.098-7.778c1.483-1.144 3.332-1.774 5.203-1.774 2.666 0 5.13 1.212 6.757 3.324l4.797 6.228 3.496 4.538c2.929-1.627 4.423-3.261 4.423-4.538V.855c-8.389 5.55-24.82 8.418-41.121 8.418C24.819 9.273 8.389 6.405-.001.855v19.7c0 3.527 11.347 9.785 33.123 11.051" mask="url(#o8tj38qy2d)"/>
        </g>
        <path fill="#FFF" d="M91.7 69.709c.356-.513.545-1 .545-1.443v-.989c-1.123.523-2.349.825-3.593.825-2.667 0-5.131-1.212-6.757-3.323l-7.59-9.853c-3.22.617-6.633 1.097-10.149 1.438L48.703 68.266l-1.231.947c-1.483 1.144-3.33 1.773-5.201 1.773-2.399 0-4.626-.986-6.236-2.72-.182-.194-.359-.392-.523-.604-2.711-3.523-2.233-8.509.979-11.466-10.896-1.199-20.646-3.763-26.49-7.63v19.7c0 3.937 14.122 11.281 41.122 11.281 6.36 0 11.996-.411 16.912-1.085.128-4.848 4.104-8.753 8.981-8.753h14.685z"/>
        <path fill="#FFF" d="M128.29 29.044c-.33-.43-.839-.686-1.38-.686-.018 0-.032 0-.049.002l-19.899.411c-.664.014-1.262.4-1.55.997-.285.599-.211 1.307.195 1.833l5.494 7.133L97.96 48.855l-2.858 2.2-2.857 2.202-3.083 2.374-3.06-3.974-1.835-2.382-1.84-2.388-5.313-6.899-2.112-2.741c-.554-.719-1.387-1.096-2.23-1.096-.598 0-1.202.19-1.714.584l-4.223 3.253L52.2 51.26l-3.688 2.84-3.562 2.744-4.398 3.387c-1.23.949-1.46 2.713-.511 3.944.553.72 1.387 1.096 2.23 1.096.597 0 1.203-.19 1.713-.584l10.048-7.737 3.882-2.992 4.047-3.117 10.301-7.933 4.372 5.674 1.893 2.459 1.901 2.469 5.993 7.781c.554.72 1.389 1.097 2.231 1.097.6 0 1.203-.191 1.713-.584l1.88-1.449 2.857-2.2 2.858-2.2 16.572-12.765 5.493 7.132c.337.438.855.686 1.393.686.11 0 .22-.01.33-.031.652-.125 1.177-.605 1.36-1.243l5.479-19.134c.153-.536.043-1.113-.297-1.556"/>
        <g transform="translate(42.857 87.576)">
            <mask id="05wvteuxvf" fill="#fff">
                <use xlink:href="#fvlo96gmfe"/>
            </mask>
            <path fill="#FFF" d="M18.571.11H1.821C1.034.11.393.75.393 1.537V34.715c0 .789.641 1.429 1.428 1.429h16.75c.789 0 1.429-.64 1.429-1.429V1.538c0-.789-.64-1.429-1.429-1.429" mask="url(#05wvteuxvf)"/>
        </g>
        <g transform="translate(75.286 76.576)">
            <mask id="dm1n06bfch" fill="#fff">
                <use xlink:href="#2xtdyc1ukg"/>
            </mask>
            <path fill="#FFF" d="M18.48.7H1.73C.942.7.3 1.34.3 2.127v43.587c0 .788.641 1.428 1.429 1.428h16.75c.788 0 1.428-.64 1.428-1.428V2.128c0-.16-.043-.309-.091-.453-.192-.563-.71-.976-1.337-.976" mask="url(#dm1n06bfch)"/>
        </g>
        <path fill="#FFF" d="M126.102 66.865h-16.75c-.787 0-1.428.64-1.428 1.429v53.996c0 .79.641 1.428 1.428 1.428h16.75c.79 0 1.429-.638 1.429-1.428V68.294c0-.789-.639-1.429-1.429-1.429"/>
    </g>
</svg>
